<svg width="24" height="26" viewBox="0 0 24 26" fill="none" xmlns="http://www.w3.org/2000/svg">
<path fill-rule="evenodd" clip-rule="evenodd" d="M12 4.88805C8.66878 4.88805 5.96875 7.60516 5.96875 10.9575V16.241C5.96875 16.3573 5.94874 16.4726 5.90962 16.582L5.5479 17.5929H18.4521L18.0904 16.582C18.0513 16.4726 18.0312 16.3573 18.0312 16.241V10.9575C18.0312 7.60516 15.3312 4.88805 12 4.88805ZM3.96875 10.9575C3.96875 6.49361 7.56421 2.8754 12 2.8754C16.4358 2.8754 20.0312 6.49361 20.0312 10.9575V16.0654L20.8159 18.2583C20.9262 18.5667 20.8804 18.9098 20.6932 19.1779C20.5059 19.446 20.2007 19.6056 19.875 19.6056H4.125C3.79935 19.6056 3.49409 19.446 3.30684 19.1779C3.11959 18.9098 3.07381 18.5667 3.18413 18.2583L3.96875 16.0654V10.9575Z" fill="#9098B1"/>
<path fill-rule="evenodd" clip-rule="evenodd" d="M8.625 17.5929C9.17728 17.5929 9.625 18.0435 9.625 18.5992C9.625 19.9194 10.6882 20.9893 12 20.9893C13.3118 20.9893 14.375 19.9194 14.375 18.5992C14.375 18.0435 14.8227 17.5929 15.375 17.5929C15.9273 17.5929 16.375 18.0435 16.375 18.5992C16.375 21.0309 14.4164 23.0019 12 23.0019C9.58359 23.0019 7.625 21.0309 7.625 18.5992C7.625 18.0435 8.07272 17.5929 8.625 17.5929Z" fill="#9098B1"/>
</svg>
