<svg width="20" height="17" viewBox="0 0 20 17" fill="none" xmlns="http://www.w3.org/2000/svg">
<path fill-rule="evenodd" clip-rule="evenodd" d="M10 1.91439C8.3971 1.91439 7.09766 2.94836 7.09766 4.22381C7.09766 5.49927 8.3971 6.53323 10 6.53323C11.603 6.53323 12.9024 5.49927 12.9024 4.22381C12.9024 2.94836 11.603 1.91439 10 1.91439ZM5.09766 4.22381C5.09766 2.06945 7.29253 0.322998 10 0.322998C12.7075 0.322998 14.9024 2.06945 14.9024 4.22381C14.9024 6.37818 12.7075 8.12463 10 8.12463C7.29253 8.12463 5.09766 6.37818 5.09766 4.22381Z" fill="#9098B1"/>
<path fill-rule="evenodd" clip-rule="evenodd" d="M7.51784 10.9773C4.47035 10.9773 2 12.9429 2 15.3678V15.4403C2 15.8798 1.55228 16.236 1 16.236C0.447715 16.236 0 15.8798 0 15.4403V15.3678C0 12.064 3.36578 9.38586 7.51784 9.38586H12.4822C16.6342 9.38586 20 12.064 20 15.3678V15.4403C20 15.8798 19.5523 16.236 19 16.236C18.4477 16.236 18 15.8798 18 15.4403V15.3678C18 12.9429 15.5296 10.9773 12.4822 10.9773H7.51784Z" fill="#9098B1"/>
</svg>
