<svg width="14" height="15" viewBox="0 0 14 15" fill="none" xmlns="http://www.w3.org/2000/svg">
<path fill-rule="evenodd" clip-rule="evenodd" d="M6.25 2.30992C3.90279 2.30992 2 4.21271 2 6.55992C2 8.90713 3.90279 10.8099 6.25 10.8099C8.59721 10.8099 10.5 8.90713 10.5 6.55992C10.5 4.21271 8.59721 2.30992 6.25 2.30992ZM0 6.55992C0 3.10814 2.79822 0.309921 6.25 0.309921C9.70178 0.309921 12.5 3.10814 12.5 6.55992C12.5 10.0117 9.70178 12.8099 6.25 12.8099C2.79822 12.8099 0 10.0117 0 6.55992Z" fill="#FEC34E"/>
<path fill-rule="evenodd" clip-rule="evenodd" d="M9.29289 9.60281C9.68342 9.21229 10.3166 9.21229 10.7071 9.60281L13.7071 12.6028C14.0976 12.9933 14.0976 13.6265 13.7071 14.017C13.3166 14.4076 12.6834 14.4076 12.2929 14.017L9.29289 11.017C8.90237 10.6265 8.90237 9.99334 9.29289 9.60281Z" fill="#FEC34E"/>
</svg>
